<?xml version="1.0" encoding="UTF-8"?>
<svg id="Layer_2" data-name="Layer 2" xmlns="http://www.w3.org/2000/svg" viewBox="0 0 415.87 428.2">
  <g id="Layer_1-2" data-name="Layer 1">
    <g id="C8oiLW">
      <g>
        <path d="M404.9,158.03l1.98-1.01c-.31,6.35,1.04,12.56,1.74,18.82.53,4.72,1.62,8.57,1.26,14.68-1.07,18.41-7.08,35.96-11.98,53.5l7.95-16.54c3.71-12.08,6.78-24.24,8.05-36.87l1.97-.1c-1.71,4.91-1.44,10.66-2.26,15.74-4.67,29.05-17.83,58.27-35.31,81.69-8.76,11.73-19.78,21.35-28.44,32.56-2.99,3.88-12.38,7.99-16.23,10.55-2.08,1.38-4.94,5.87-6.48,7.01-6,4.45-17.19,5.43-22.26,11.47,1.1,1.19,3.69-.54,4.95-1.05,15.44-6.2,28.94-13.96,42.61-23.4,4.63,1.06-.84,2.31-1.89,3.08-41.96,30.55-90.46,46.3-141.94,27.64-19.31-7-26.21-18.97-40.55-26.45-13.1-6.83-15.99-11.57-25.18-22.54-2.93-3.5-10.71-11.47-12.42-14.86-.56-1.11-6.2-20.48-6.21-21.6-.04-4.35,3.14-9.97,3.63-14.84.8-7.93-2.97-18.91,3-24.49.67,3.14.78,6.55,1.91,9.61.51,1.37-.36,1.7,2.09,1.4,1.94-4.26-.36-9.99.17-13.25,1.21-7.47,8.3-21.84,13.33-27.76,5.35-6.29,14.13-14.09,22.51-14.49l-10,9.49,6.99-1.5c-3.04,4.81-7.45,8.73-10.41,13.59-5.06,8.29-5.86,17.81-6.59,27.43l4.02,19.49c2.08-.94.55-5.05,1.2-7.29.24-.83,2.26-3.09,2.78-2.7,3.2,14.06,10.45,24.55,20.42,34.61,25.1,25.35,64.04,32.78,97.27,19.56,8.03-3.19,15.7-8.96,23.32-12.17l-2,2.98h1.49c17.15-12.66,33.63-27.11,42.53-46.99l2,.51-.03,5.48,8.3-16.2,9.7-27.79c.45,7.59-2.61,14.67-4.44,21.86-.92,3.62-.45,5.78-2.39,10.8-6.59,17.08-19.18,33.31-32.16,45.85l3.98-.51c-.03.47.17,1.05,0,1.49-1.87,4.72-24.33,20.14-29.71,23.3-10.31,6.05-21.67,11.1-33.27,14.23-.16,1.85,3.26.98,4.37.86,36.8-4.02,75.28-29.74,95.45-60.55,11.41-17.43,16.66-33.24,21.87-53.13.88-3.36,3.35-6.09,2.32-10.19,1.67-.26,1.07,2.41,1.04,3.53-.09,2.85-.92,5.23-1.09,7.93-.07,1.08-.64,3.79,1.03,3.52l4.96-19.54c1.56-17.31,3.54-32.29.75-49.66-1.01-6.3-4.06-13.32-4.72-19.3-.24-2.17.4-2.64,1.25-.24.77,2.17,1.19,4.52,1.77,6.75,1.71.27,1.07-2.4.91-3.4-.6-3.57-3.1-10.98-4.44-14.57-3.79-10.21-10.31-19.63-13.47-30.01,1.54.95,3.19,3.71,4.19,5.3,13.13,20.98,20.69,44.32,24.82,68.7Z"/>
        <g>
          <path d="M220.89,406.02c-.26,1.33,1.83,1.6,2.74,1.75,32.1,5.29,58.28,1.51,88.24-11.26l29.01-15.48c-4.77,5.12-12.12,9.64-18.33,13.16-7.04,3.99-19.27,7.72-24.68,11.32-.41.27-1.32,1.24-.99,1.5h5.99c-6.67,1.47-13.48,4.83-19.97,6.54-5.13,1.35-17.66,2.37-21.04,3.96-.46.21-1.26,1.3-.98,1.51l4.99,1c-28.3,5.59-57.14-.48-84.48-8.01-1.6,1.05.75,1.18,1.45,1.53,13.33,6.69,29.22,10.07,44.04,11.49l-1.01,1.98,5,.02c.25,1.72-2.37,1.06-3.48.98-31.78-2.41-67.39-16.53-93.43-34.58-17.46-12.1-31.15-27.03-45.54-41.45l-20.53-31.96-1,3.99c-.12-.71-1.99-9.24-4.01-6.98.69,2.75,2.63,5.44,3.54,7.95.34.94,1.32,3.25-.53,3.03-10.68-21.85-17.83-45.95-19.05-70.45-.42-8.49,3.3-41.4,8.16-47.42.17-.21,3.06,1.18,3.87-2.65l-1.98-.47c-.85-5.04,3.64-6.52,5.66-9.82s9.37-16.7,10.31-19.71c.16-.51.27-1.63-.48-1.48-2.75,2.18-3.83,5.59-5.66,8.34-.68,1.02-2.02,3.12-1.83.18,11.75-24.47,28.13-42.41,50.65-57.35,5.96-3.95,12.82-6.5,18.33-11.16-9.73.5-22.18,4.32-30.99,8.5-3.3,1.57-8.52,6.08-11.07,6.96-1.64.57-3.08-.6-5.21.5-1.8.93-10.64,8.6-12.74,10.51-24.79,22.56-41.26,57.51-46,90.51-1.61.05-2.05-3.53-2.04-4.53.05-4.09,1.3-10.29,2.05-14.46l-3.89.1c-2.2,11.96-5.79,23.58-5.12,35.88l-2-6.99c-1.47-.09-1.76,3.59-1.87,4.61-2.47,23.85,6.28,58.21,15.4,80.36,1.02,2.49,9.14,17.21,8.48,18.01-1.59,1.92-2.14-1.49-2.47-1.99-13.34-20.22-21.62-43.1-25.54-67.01l-1.98,1.01c-2.36-15.11-4.95-29.07-4.05-44.54.32-5.44,2.62-10.87,2.03-16.46l-3.98,16.51c-.95,10.31-.59,20.68-1.01,31-.05,1.21.76,3.72-.99,3.48-2.01-18.24-.54-36.31,3.28-54.2,5.69-26.6,18.28-54.27,36.19-74.81,12.53-14.37,28.12-27.99,42.88-38.68,2.09-1.51,5.04-3.8,7.31-5.13,8.1-4.72,17.84-5.99,25.31-11.68-.58-1.11-3.06-.36-4.06-.06-4.93,1.45-12.15,4.07-16.92,6.08-5.92,2.5-11.54,5.71-17,9.06l-3.01-1.56c7.31-3.27,13.53-7.28,21.03-10.48,41.63-17.72,105.32-20,137.36,16.53,7.45,8.49,19.25,22.58,25.05,30.99,1.88,2.72,2.79,5.74,1.55,8.94h3.02c-.58.94-.99,6.56-.8,6.84.44.65,2.97.64,3.38,2.64.29,1.43,1.49,14.7,1.43,15.95-.03.6-1.81.47-2.01,1.25-.84,3.27.47,12.51-.07,16.68-.95,7.34-6.19,10.12-9.83,15.27-1.28,1.81-1.98,6.57-4.15,7.84-1.77,1.04-4.95.64-7.18,1.61-2.34,1.02-3.51,6.66-7.78,4.93l2.99-11c-3.39,4.06-13.56,10.03-10.21.28,1.31-3.81.84-3.28,1.51-6.54.81-3.92,3.79-12.92,3.71-16.16-.01-.42-1.99-.98-2.7-2.36-4.02-7.82-6.35-15.17-12.66-21.87-11.3-12-42.33-18.2-57.89-14.1-16.88,4.45-44.65,26.44-51.3,42.7-8,19.58-15.17,39.67-12.3,61.38,4.09,30.86,16.16,53.6,33.4,78.6,1.53,2.22,4.21,3.59,5.44,6.05-3.79-1.37-7.75-5.94-10.51-8.98-10.93-11.99-19.89-26.25-26.5-41.01-3.03,1.4,3.29,6.72-.97,7.99l-7.03-17.99-1.98,1.99c-.42-2.6-1.08-8.23-4.02-8.48,4.3,28.28,12.98,52.66,31.04,74.96,27.48,33.94,72.93,61.32,117.35,62.65l8.62,1.88h-21Z"/>
          <path d="M288.48,41.43c17,13.04,26.46,24.91,36.58,43.92,15.79,29.68,22.79,62.37,15.82,95.67-1.67.26-1.09-2.43-1.03-3.53.2-3.49,1.64-6.87,1.03-10.47l-1.51.98c-2.8,21.72-10.59,45.84-23.05,63.95-5.68,8.26-9.85,10.55-16.95,16.05-2.95,2.29-6.19,8.17-9.48,7.52,1.07-1.83,5.85-3.95,4.49-6.51l-10.49,7,8.99-8.5-1.48-.49c-18.62,17.19-48.65,29.46-73.51,19.44-1.6-.65-2.45.1-1.99-2.45,13.76,6.17,27.81,2.03,40.97-3.52,36.02-15.19,57.16-53.48,56.92-92.09-.02-3.19-.52-11.7-2.89-13.39,1.89,10-.3,22.47-3.31,32.21-.32,1.05-.26,3.03-1.69,2.79,9.75-51.08-20.52-100.54-63.71-125.8-6.45-3.77-14.35-5.66-19.56-10.49l-18.74-6.7c2.09-.07,4.18-.14,6.26.23,20.97,3.77,39.84,14.36,58.44,23.55,1.73.85,3.45,1.83,5.04,2.9,2.82,1.88,8.69,9.81,9.77,10.3.43.2,1.64.25,1.48-.49-31.73-39.78-83.53-58.63-133.99-53.52l7.99-2.98c-18.25.21-37.47,4.41-54.52,10.97-2.86.28-.87-1.29.16-1.85,1.21-.65,14.72-5.12,13.37-6.12-16.67,3.65-33.12,11.7-47.52,20.97-9.15,5.89-15.82,12.13-23.97,19.02-1.12.95-1.63,2.42-3.5,1.99,3.63-3.42,4.31-7.53,7.82-10.9,5.42-5.22,16.07-13.13,22.44-17.39,32.07-21.45,69.13-31.38,107.74-30.71-.53-1.55-5.01-1.79-6.51-1.98-3.91-.49-12.69.48-14.82.01-.73-.16-.6-1.92-1.33-2.06-2.98-.53-10.78,1.7-14.33,1.02-.24-1.37,1.78-1.51,2.75-1.72,6.59-1.44,13.98-1.1,20.72-2.31,1.77-.32,2.99,1.1,2.52-1.95l-38.99,3.98,16.99-4-4.99-1.98c52.12-7.92,104.28,7.73,145.59,39.4Z"/>
          <path d="M80.89,346.01c-4.52.51-3.44-2.94-4.1-3.86-.12-.16-1.43.53-1.91.24-3.14-1.89-3.22-6.13-3.01-9.37l-1.98,1.99-2.02-3.51c1.95-.8,2.29-1.21,2.01-3.48l10.99,17.98Z"/>
        </g>
      </g>
    </g>
  </g>
</svg>