<?xml version="1.0" encoding="utf-8" ?><svg xmlns="http://www.w3.org/2000/svg" xmlns:xlink="http://www.w3.org/1999/xlink" width="209" height="209" viewBox="175.8 173.8 209.2 209.2"><g><path transform="translate(-232.5 0)" d="M453.037 205.566C457.652 201.367 463.604 196.07 469.119 193.115C491.841 180.936 516.046 175.846 540.776 183.963C530.915 183 520.781 182.021 510.894 182.731C505.437 183.123 502.396 184.835 498.133 187.914C500.714 187.504 507.41 186.297 509.723 186.566L509.976 186.782C495.149 190.063 478.871 195.067 467.324 205.361C460.096 213.502 451.673 220.871 446.566 230.489L446.838 230.937C455.111 219.331 458.165 215.664 469.147 207.503C472.172 205.679 475.374 203.642 478.538 202.114L478.811 202.313C457.778 216.846 443.929 233.474 439.288 259.259C436.331 275.686 438.732 290.156 445.727 304.994C447.789 310.409 452.271 316.836 455.789 321.502C458.232 324.288 460.233 326.915 463.479 328.758C461.989 327.026 458.644 323.422 457.896 321.461C458.96 321.763 460.063 323.227 460.872 324.113L461.238 324.505C484.58 349.026 526.984 354.15 552.379 329.573L552.191 329.154C550.64 329.624 547.106 333.101 545.308 334.256C517.571 352.08 484.607 345.427 461.699 323.395C455.587 316.675 453.124 312.265 449.628 303.878L450.786 302.561L450.528 301.418L450.376 300.089L451.327 300.116C462.233 330.813 494.385 347.596 525.932 340.32C541.889 336.654 555.71 326.742 564.3 312.803C575.402 294.916 572.72 279.123 568.193 260.002C569.151 261.725 571.209 267.223 572.145 269.448C571.747 266.914 571.007 261.759 570.173 259.491C565.53 247.071 556.59 234.576 543.664 229.994C535.124 226.968 524.794 225.85 519.817 217.41C518.746 215.594 518.267 213.084 516.846 211.662C513.917 208.733 518.845 207.507 519.759 205.002C518.831 204.479 518.535 204.4 517.941 203.493C518.916 201.553 525.848 198.432 528.04 197.45C538.578 192.727 547.43 196.682 557.42 200.627C582.03 210.346 593.754 228.126 603.725 251.976C603.068 252.191 602.256 252.321 601.879 252.753C610.154 285.939 610.189 304.07 592.437 335.594C584.987 348.825 572.278 360.162 559.093 367.631L558.357 366.826C549.624 369.31 541.974 374.431 532.12 376.263C512.222 379.964 492.684 378.41 473.768 370.919C468.738 368.927 464.807 365.576 460.409 362.557C442.466 351.209 430.086 335.32 421.599 315.988C420.368 313.185 415.699 300.383 416.839 297.665C418.846 305.084 423.229 315.91 427.853 322.073C420.432 306.239 417.111 296.658 416.959 278.796C416.806 260.753 420.154 243.402 428.502 227.191C429.295 225.651 431.255 222.109 432.384 220.958C432.088 222.346 431.853 223.298 431.792 224.738C440.16 210.88 449.587 198.29 463.35 189.31C465.259 188.064 472.723 183.709 474.418 183.666C474.46 183.494 460.716 193.389 458.949 195.216C459.945 195.297 462.989 193.723 464.102 193.211C463.268 194.422 454.86 201.242 452.795 203.477C450.042 206.2 448.083 208.56 445.603 211.543C448.317 209.505 450.526 207.863 453.037 205.566ZM432.944 305.608C432.295 302.82 429.499 290.137 428.459 288.299C428.557 292.752 429.874 302.435 432.944 305.608Z"/><path fill="#CDCBCD" fill-opacity="0.031372551" transform="translate(-232.5 0)" d="M428.459 288.299C429.499 290.137 432.295 302.82 432.944 305.608C429.874 302.435 428.557 292.752 428.459 288.299Z"/><path fill="#3C3D3C" transform="translate(-232.5 0)" d="M431.265 241.62C432.236 241.956 432.194 242.019 432.787 242.817C432.759 244.729 431.023 247 429.941 248.714L429.561 249.14L429.081 249.051C429.233 246.81 430.478 243.813 431.265 241.62Z"/><path fill="#CDCBCD" fill-opacity="0.023529412" transform="translate(-232.5 0)" d="M461.699 323.395C484.607 345.427 517.571 352.08 545.308 334.256C547.106 333.101 550.64 329.624 552.191 329.154L552.379 329.573C526.984 354.15 484.58 349.026 461.238 324.505L460.872 324.113L461.699 323.395Z"/><defs><linearGradient id="gradient_0" gradientUnits="userSpaceOnUse" x1="452.99667" y1="305.30634" x2="447.54852" y2="309.74908"><stop offset="0" stop-color="#FCFAFF" stop-opacity="0"/><stop offset="1" stop-color="#D3D1D3" stop-opacity="0.0078431377"/></linearGradient></defs><path fill="url(#gradient_0)" transform="translate(-232.5 0)" d="M446.316 295.598C447.405 298.328 448.498 301.176 449.628 303.878C453.124 312.265 455.587 316.675 461.699 323.395L460.872 324.113C460.063 323.227 458.96 321.763 457.896 321.461L455.789 321.502C452.271 316.836 447.789 310.409 445.727 304.994C446.044 302.106 444.247 299.44 444.25 295.904L444.956 295.313L445.681 296.287L446.316 295.598Z"/><path fill="#CDCBCD" fill-opacity="0.011764706" transform="translate(-232.5 0)" d="M443.972 279.369C445.826 278.726 445.187 278.903 447.438 279.646C449.256 281.554 449.825 286.753 449.114 289.165C447.955 286.841 446.786 284.372 445.458 282.154L450.376 300.089L450.528 301.418L450.38 301.371C448.281 299.386 444.522 282.766 443.972 279.369Z"/><path fill="#CDCBCD" fill-opacity="0.023529412" transform="translate(-232.5 0)" d="M469.147 207.503C458.165 215.664 455.111 219.331 446.838 230.937L446.566 230.489C451.673 220.871 460.096 213.502 467.324 205.361L469.147 207.503Z"/><path transform="translate(-232.5 0)" d="M558.357 366.826L559.093 367.631C552.074 371.842 530.068 380.974 522.191 379.186C523.962 378.047 529.332 377.969 531.712 377.296C539.377 375.127 552.185 371.724 558.357 366.826Z"/><path transform="translate(-232.5 0)" d="M446.316 295.598C445.723 293.016 442.512 278.719 443.395 277.205L443.972 279.369C444.522 282.766 448.281 299.386 450.38 301.371L450.528 301.418L450.786 302.561L449.628 303.878C448.498 301.176 447.405 298.328 446.316 295.598Z"/><path transform="translate(-232.5 0)" d="M603.725 251.976C606.205 258.833 608.426 267.159 608.46 274.496L608.167 274.987C607.366 269.597 605.827 256.606 601.879 252.753C602.256 252.321 603.068 252.191 603.725 251.976Z"/><path transform="translate(-232.5 0)" d="M445.458 282.154C446.786 284.372 447.955 286.841 449.114 289.165C448.998 292.082 450.589 297.03 451.327 300.116L450.376 300.089L445.458 282.154Z"/><path fill="#CDCBCD" fill-opacity="0.05882353" transform="translate(-232.5 0)" d="M452.795 203.477L453.037 205.566C450.526 207.863 448.317 209.505 445.603 211.543C448.083 208.56 450.042 206.2 452.795 203.477Z"/><path fill="#CDCBCD" fill-opacity="0.082352944" transform="translate(-232.5 0)" d="M455.789 321.502L457.896 321.461C458.644 323.422 461.989 327.026 463.479 328.758C460.233 326.915 458.232 324.288 455.789 321.502Z"/></g></svg>